<?xml version="1.0" encoding="utf-8"?>
<!-- Generator: Adobe Illustrator 14.0.0, SVG Export Plug-In . SVG Version: 6.00 Build 43363)  -->
<!DOCTYPE svg PUBLIC "-//W3C//DTD SVG 1.1 Basic//EN" "http://www.w3.org/Graphics/SVG/1.1/DTD/svg11-basic.dtd">
<svg version="1.1" baseProfile="basic" id="Layer_1"
	 xmlns="http://www.w3.org/2000/svg" xmlns:xlink="http://www.w3.org/1999/xlink" x="0px" y="0px" width="324px" height="278px"
	 viewBox="-478 499 324 278" xml:space="preserve">
<g opacity="0.49">
	
		<linearGradient id="SVGID_1_" gradientUnits="userSpaceOnUse" x1="-548.3564" y1="813.4287" x2="-606.4914" y2="232.0788" gradientTransform="matrix(1 0 0 -1 244 1330)">
		<stop  offset="0.0502" style="stop-color:#00FFFF"/>
		<stop  offset="0.8447" style="stop-color:#00FF00"/>
	</linearGradient>
	<path fill="url(#SVGID_1_)" d="M-223.15,514.289c-13.098-11.337-49.363-12.282-65.483-4.724
		c-22.163,10.392-20.148,27.397-19.142,46.292c3.022,55.74-82.607,68.966-122.905,91.641c-16.118,8.502-35.259,17.949-41.304,34.955
		c-9.066,25.508,11.082,48.182,35.26,56.686c44.327,14.17,76.564-39.68,111.824-55.74c40.296-17.006,79.585,7.559,119.882-15.115
		c17.125-9.447,30.223-22.674,35.26-40.624c6.044-18.896-5.037-17.951-10.074-34.011c-5.036-16.061,10.074-17.006,19.141-29.288
		c8.061-12.28,6.045-23.617-1.007-34.954c-13.097-25.508-48.356-37.79-70.52-16.062"/>
</g>
<linearGradient id="SVGID_2_" gradientUnits="userSpaceOnUse" x1="-564.9551" y1="579.9707" x2="-555.1339" y2="692.2277" gradientTransform="matrix(1 0 0 -1 244 1330)">
	<stop  offset="0" style="stop-color:#FFFFFF"/>
	<stop  offset="1" style="stop-color:#4D4D4D"/>
</linearGradient>
<polygon fill="url(#SVGID_2_)" points="-292,644 -343,645 -348,618 -418,617.478 -418,661 -309.466,735 -204,655 -201,619 -287,618 
	"/>
<polyline fill="none" stroke="#4D4D4D" stroke-width="4" points="-402,616 -397,654 -311,702 -228,647 -220,607 "/>
<polyline fill="none" stroke="#4D4D4D" stroke-width="2" points="-387,599.19 -382.895,630.391 -312.284,669.801 -244.137,624.643 
	-237.568,591.801 "/>
<polygon fill="#CCCCCC" points="-244,515 -294.667,514.333 -296,505 -337,505 -338.667,514.333 -378,514 -448,595 -181,596 "/>
<line fill="none" stroke="#808080" x1="-336.333" y1="505" x2="-354.333" y2="581.333"/>
<line fill="none" stroke="#808080" x1="-296" y1="505.333" x2="-280" y2="581.334"/>
<path fill="#808080" d="M-280,595v-14h-75v14h-94v70l144,109l124-109v-70H-280z M-204,655l-105.466,80L-418,661v-43.522l51,0.522
	l18,36h62l16-35h70L-204,655z"/>
<linearGradient id="SVGID_3_" gradientUnits="userSpaceOnUse" x1="-598.7759" y1="782.0244" x2="-604.7755" y2="722.0286" gradientTransform="matrix(1 0 0 -1 244 1330)">
	<stop  offset="0.0502" style="stop-color:#00FFFF"/>
	<stop  offset="0.8402" style="stop-color:#FF7BAC"/>
</linearGradient>
<path fill="url(#SVGID_3_)" d="M-364.667,599.292c-1.883,0.024,3.037-16.509,6.343-9.103c0.122,0.273,0.509,0.213,0.647,0
	c0.744-1.149,2.848-3.499,4.411-1.924c0.341,0.343,0.871-0.188,0.53-0.531c-1.893-1.908-4.512,0.414-5.589,2.076
	c0.216,0,0.432,0,0.647,0c-3.919-8.78-11.085,10.284-6.99,10.231C-364.183,600.036-364.183,599.286-364.667,599.292
	L-364.667,599.292z"/>
<linearGradient id="SVGID_4_" gradientUnits="userSpaceOnUse" x1="-594.9932" y1="781.6504" x2="-600.9932" y2="721.6504" gradientTransform="matrix(1 0 0 -1 244 1330)">
	<stop  offset="0.0502" style="stop-color:#00FFFF"/>
	<stop  offset="0.8402" style="stop-color:#FF7BAC"/>
</linearGradient>
<path fill="url(#SVGID_4_)" d="M-361.567,587.972c-6.58-2.383-2.274-5.836-3.458-9.8c-0.208-0.697-0.292-1.262-0.849-1.785
	c-0.399-0.412-0.833-0.782-1.303-1.111c-2.223-1.393-1.005-2.933,3.654-4.618c0.19,0.142,0.504-0.005,0.551-0.225
	c0.703-3.28,4.086-6.807,7.821-4.662c0.808,0.464,1.34,1.062,2.311,0.987c1.402-0.109,0.953-3.299,0.548-3.989
	c-0.315-0.539-0.844-0.96-1.294-1.371c-1.397-1.275-8.256-7.012,0.247-8.093c1.858-0.236,4.057,0.8,5.801,1.328
	c3.454,1.047,10.807-3.867,11.163,2.7c0.026,0.481,0.776,0.483,0.75,0c-0.117-2.155-0.582-5.253-3.514-4.747
	c-2.125,0.366-4.038,1.504-6.194,1.706c-1.949,0.183-4.376-1.171-6.27-1.585c-2.811-0.614-4.582,0.562-5.293,3.249
	c-0.311,1.174-0.186,2.77,0.594,3.757c0.857,1.086,1.868,1.925,2.885,2.854c0.263,2.763-0.189,3.614-1.356,2.555
	c-0.2-0.145-0.414-0.263-0.641-0.354c-2.392-0.637-5.664-0.03-7.176,2.004c-1.348,1.812-0.33,2.284-2.692,2.108
	c-1.344-0.1-3.296,0.082-3.939,1.578c-1.967,4.583,3.641,5.31,3.542,9.754c-0.099,4.434-0.852,6.757,3.912,8.481
	C-361.311,588.859-361.116,588.135-361.567,587.972L-361.567,587.972z"/>
<linearGradient id="SVGID_5_" gradientUnits="userSpaceOnUse" x1="-530.9692" y1="775.2461" x2="-536.9689" y2="715.2496" gradientTransform="matrix(1 0 0 -1 244 1330)">
	<stop  offset="0.0502" style="stop-color:#00FFFF"/>
	<stop  offset="0.8402" style="stop-color:#FF7BAC"/>
</linearGradient>
<path fill="url(#SVGID_5_)" d="M-299.292,557.333c-0.642-5.08,3.429-3.148,6.01-2.172c2.265,0.856,4.94-0.501,7.074-1.118
	c4.99-1.444,4.082,4.51,6.435,6.13c0.453,0.312,2.168,0.422,2.477,0.467c4.896,0.71-0.299,7.77-1.361,9.171
	c-0.292,0.386,0.359,0.759,0.647,0.379c2.116-2.793,4.918-6.769,1.804-9.883c-1.454-1.453-4.138-0.549-4.329-3.949
	c-0.071-1.283-0.979-2.431-2.231-2.819c-2.178-0.677-3.783-0.22-5.938,0.495c-3.192,1.06-4.799,0.093-7.635-0.814
	c-3.285-1.051-4.06,1.292-3.703,4.114C-299.982,557.807-299.23,557.812-299.292,557.333L-299.292,557.333z"/>
<linearGradient id="SVGID_6_" gradientUnits="userSpaceOnUse" x1="-517.5776" y1="773.9092" x2="-523.5781" y2="713.9053" gradientTransform="matrix(1 0 0 -1 244 1330)">
	<stop  offset="0.0502" style="stop-color:#00FFFF"/>
	<stop  offset="0.8402" style="stop-color:#FF7BAC"/>
</linearGradient>
<path fill="url(#SVGID_6_)" d="M-287.477,570.991c4.049-1.854,6.738,0.271,10.701,0.02c1.258-0.08,2.435-0.412,3.715-0.212
	c2.141,0.335,3.256,4.674,2.344,6.393c-1.809,3.409,8.697,3.686,6.061,8.286c-0.24,0.421,0.407,0.798,0.647,0.379
	c1.454-2.539,0.429-3.834-2.032-5.062c-1.012-0.505-4.62-2.109-3.872-3.52c0.543-1.024,0.162-2.328-0.058-3.375
	c-0.596-2.829-2.359-4.144-5.127-3.855c-4.646,0.482-8.344-1.722-12.758,0.298C-288.295,570.544-287.914,571.19-287.477,570.991
	L-287.477,570.991z"/>
<linearGradient id="SVGID_7_" gradientUnits="userSpaceOnUse" x1="-493.7773" y1="771.5283" x2="-499.7776" y2="711.5261" gradientTransform="matrix(1 0 0 -1 244 1330)">
	<stop  offset="0.0502" style="stop-color:#00FFFF"/>
	<stop  offset="0.8402" style="stop-color:#FF7BAC"/>
</linearGradient>
<path fill="url(#SVGID_7_)" d="M-262.657,606.189c2.488,4.568,5.04,2.156,7.493-1.1c2.107-2.797,4.354-2.248,7.374-2.788
	c1.756-0.313,2.039-2.264,2.176-3.702c0.401-4.215-1.872-9.949-3.706-13.642c-2.459-4.949-7.837,0.81-8.707,3.609
	c-0.145,0.463,0.579,0.659,0.723,0.199c0.334-1.309,0.977-2.442,1.931-3.402c3.794-4.371,5.321-0.403,6.06,1.475
	c0.516,1.31,0.918,2.666,1.328,4.011c0.656,2.146,3.484,9.455-0.003,10.729c-1.862,0.68-4.34-0.416-6.006,1.062
	c-2.245,1.991-5.096,8.524-8.013,3.169C-262.241,605.386-262.889,605.765-262.657,606.189L-262.657,606.189z"/>
<linearGradient id="SVGID_8_" gradientUnits="userSpaceOnUse" x1="-473.1445" y1="769.4639" x2="-479.1445" y2="709.4639" gradientTransform="matrix(1 0 0 -1 244 1330)">
	<stop  offset="0.0502" style="stop-color:#00FFFF"/>
	<stop  offset="0.8402" style="stop-color:#FF7BAC"/>
</linearGradient>
<path fill="url(#SVGID_8_)" d="M-245.068,590.266c3.381-2.961,5.713,2.201,9.118,1.356c5.106-1.267,7.558-8.43,13.413-3.778
	c1.939,1.54,4.152,6.212,1.77,8.125c-0.659,0.528-1.217,1.122-1.273,2.031c-0.091,1.477,1.988,10.545-1.77,8.676
	c-0.432-0.214-0.812,0.433-0.379,0.648c3.416,1.698,3.611-1.503,3.391-4.251c-0.275-3.425-0.814-4.597,1.473-7.5
	c0.82-1.041,0.362-3.178-0.117-4.238c-2.015-4.452-6.084-7.828-10.646-4.474c-0.874,0.643-1.659,1.443-2.475,2.158
	c-2.971,2.607-5.627,1.556-8.592-0.021c-1.775-0.943-3.045-0.488-4.441,0.735C-245.963,590.054-245.43,590.582-245.068,590.266
	L-245.068,590.266z"/>
<linearGradient id="SVGID_9_" gradientUnits="userSpaceOnUse" x1="-464.894" y1="768.6406" x2="-470.8943" y2="708.6384" gradientTransform="matrix(1 0 0 -1 244 1330)">
	<stop  offset="0.0502" style="stop-color:#00FFFF"/>
	<stop  offset="0.8402" style="stop-color:#FF7BAC"/>
</linearGradient>
<path fill="url(#SVGID_9_)" d="M-218.971,589.433c0.634-2.467,1.522-1.076,2.223-2.448c0.6-1.177,0.73-2.168,0.67-3.479
	c-0.107-2.311-2.929-4.146-4.406-5.492c-0.791-0.722-1.375-1.515-2.276-2.09c-2.364-1.508-0.46-4.618-0.53-6.59
	c-0.061-1.69-6.214-4.324-3.186-6.342c0.399-0.268,0.024-0.917-0.379-0.648c-1.324,0.883-1.881,1.554-1.095,3.052
	c0.577,1.1,2.037,1.989,2.938,2.807c1.687,1.528,0.25,3.987,0.304,5.799c0.065,2.228,2.353,3.161,3.694,4.543
	c1.961,2.019,6.938,6.062,2.334,8.909c-0.805,0.498-0.797,0.933-1.016,1.781C-219.814,589.702-219.092,589.9-218.971,589.433
	L-218.971,589.433z"/>
<linearGradient id="SVGID_10_" gradientUnits="userSpaceOnUse" x1="-445.7373" y1="766.7227" x2="-451.7371" y2="706.7247" gradientTransform="matrix(1 0 0 -1 244 1330)">
	<stop  offset="0.0502" style="stop-color:#00FFFF"/>
	<stop  offset="0.8402" style="stop-color:#FF7BAC"/>
</linearGradient>
<path fill="url(#SVGID_10_)" d="M-223,574.708c3.342,0.113,11.816,2.255,13.607-2.337c1.35-3.458,0.147-9.293,5.969-9.065
	c0.908,0.036,1.958,0.275,2.855,0.056c0.961-0.217,1.914-0.468,2.857-0.75c4.037-1.562,6.792,0.447,8.268,6.026
	c-0.44,2.104-0.44,3.258,0.825,5.051c0.665,0.94,1.679,1.718,2.519,2.493c3.186,2.941,3.072,7.349-1.556,7.939
	c-3.353,0.428-7.233-0.455-8.042,3.779c-0.09,0.473,0.633,0.674,0.725,0.199c1.138-5.96,10.802-0.402,12-7.333
	c0.429-2.478-1.873-4.447-3.457-5.909c-2.483-2.293-2.754-3.811-2.084-7.008c0.131-0.63,0.134-1.783-0.168-2.372
	c-1.627-3.169-4.215-4.37-7.7-3.946c-2.122,0.259-3.972,1.192-6.175,1.091c-1.189-0.055-2.196-0.133-3.348,0.185
	c-2.332,0.643-3.305,3.943-3.627,5.977c-0.049,0.35-0.08,0.702-0.093,1.057c-0.267,3.216-3.465,4.52-6.467,4.558
	c-2.302,0.029-4.61-0.361-6.911-0.439C-223.484,573.941-223.482,574.691-223,574.708L-223,574.708z"/>
<linearGradient id="SVGID_11_" gradientUnits="userSpaceOnUse" x1="-421.6797" y1="764.3193" x2="-427.6799" y2="704.3173" gradientTransform="matrix(1 0 0 -1 244 1330)">
	<stop  offset="0.0502" style="stop-color:#00FFFF"/>
	<stop  offset="0.8402" style="stop-color:#FF7BAC"/>
</linearGradient>
<path fill="url(#SVGID_11_)" d="M-185.666,583.042c4.636-0.017,4.98,7.133,7.859,9.599c4.885,4.183,2.814,15.087-2.959,17.331
	c-0.445,0.173-0.252,0.898,0.199,0.723c5.99-2.328,6.928-10.052,5.301-15.536c-0.371-1.256-1.101-2.148-2.012-3.048
	c-1.761-1.741-2.863-4.07-3.658-6.445c-0.89-2.651-1.84-3.383-4.73-3.373C-186.148,582.294-186.148,583.044-185.666,583.042
	L-185.666,583.042z"/>
<linearGradient id="SVGID_12_" gradientUnits="userSpaceOnUse" x1="-528.2422" y1="774.9746" x2="-534.2422" y2="714.9746" gradientTransform="matrix(1 0 0 -1 244 1330)">
	<stop  offset="0.0502" style="stop-color:#00FFFF"/>
	<stop  offset="0.8402" style="stop-color:#FF7BAC"/>
</linearGradient>
<path fill="url(#SVGID_12_)" d="M-297.4,540.6c5.463-4.993,4.809,2.769,9.029,1.607c0.61-0.167,1.148-0.682,1.357-1.274
	c0.395-1.109,0.974-2.034,1.673-2.974c0.362-0.587,0.715-1.18,1.055-1.78c4.31-3.185,6.618-2.166,6.925,3.056
	c-0.078,0.191,0.084,0.409,0.262,0.461c4.74,1.383,4.315,5.455,3.738,9.205c-0.035,0.237,0.098,0.474,0.362,0.475
	c2.882,0.012,4.606-1.413,5.028-4.275c0.07-0.473-0.652-0.677-0.723-0.199c-1.259,1.031-2.517,2.063-3.774,3.095
	c0.055-0.404,0.104-0.811,0.145-1.217c0.122-1.042,0.183-2.312-0.081-3.339c-0.508-1.976-1.375-3.125-3.17-4.069
	c-0.846-0.444-0.627-3.285-1.337-4.265c-1.006-1.388-3.221-1.468-4.743-1.566c-1.027-0.067-2.193,0.656-2.75,1.48
	c-0.775,1.146-1.424,2.348-2.25,3.458c-0.211,0.282-3.271,5.502-3.764,1.723c-0.486-3.739-5.785-1.71-7.512-0.132
	C-298.29,540.396-297.758,540.925-297.4,540.6L-297.4,540.6z"/>
<linearGradient id="SVGID_13_" gradientUnits="userSpaceOnUse" x1="-674.9639" y1="789.6465" x2="-680.9637" y2="729.6465" gradientTransform="matrix(1 0 0 -1 244 1330)">
	<stop  offset="0.0502" style="stop-color:#00FFFF"/>
	<stop  offset="0.8402" style="stop-color:#FF7BAC"/>
</linearGradient>
<path fill="url(#SVGID_13_)" d="M-416.638,582.767c1.111-4.463,0.5-8.215-2.635-11.564c-1.036-1.107-2.198-1.692-2.814-3.207
	c-0.714-1.751,0.049-3.994,0.27-5.82c0.177-1.465,0.7-3.71-0.108-5.113c-2.104-3.657-8.845-3.102-12.365-3.27
	c-3.513-0.168-10.465,0.045-11.403,4.503c-0.274,1.304,0.825,2.876,1.414,3.902c2.536,4.417,2.132,8.109-2.628,10.619
	c-2.027,1.068-8.279,4.726-6.359,7.96c0.529,0.89,1.207,1.63,1.808,2.479c1.891,2.665,0.352,5.896-1.127,8.321
	c-1.362,2.231-2.706,4.306-2.83,6.982c-0.139,2.988,1.307,8.246,5.083,7.815c0.475-0.054,0.48-0.805,0-0.75
	c-4.316,0.492-4.572-6.707-4.016-9.107c0.65-2.809,3.038-5.257,4.173-7.897c0.931-2.166,0.244-4.773-1.204-6.538
	c-4.334-5.283,5.522-8.479,8.203-10.822c1.917-1.676,1.865-4.812,0.867-6.938c-0.649-1.382-1.449-2.673-2.158-4.022
	c-2.952-5.622,7.784-5.805,10.177-5.758c5.147,0.103,12.505-0.224,11.848,6.58c-0.228,2.36-1.561,6.362,0.375,8.472
	c1.559,1.697,3.116,2.933,4.412,4.93c1.296,1.997,0.84,5.855,0.295,8.044C-417.479,583.037-416.755,583.235-416.638,582.767
	L-416.638,582.767z"/>
<linearGradient id="SVGID_14_" gradientUnits="userSpaceOnUse" x1="-688.0107" y1="790.9512" x2="-694.0106" y2="730.9512" gradientTransform="matrix(1 0 0 -1 244 1330)">
	<stop  offset="0.0502" style="stop-color:#00FFFF"/>
	<stop  offset="0.8402" style="stop-color:#FF7BAC"/>
</linearGradient>
<path fill="url(#SVGID_14_)" d="M-452.657,605.478c-1.789,3.778-0.994,7.771,3.224,9.218c0.458,0.158,0.654-0.566,0.199-0.723
	c-3.753-1.288-4.337-4.819-2.776-8.116C-451.804,605.422-452.45,605.041-452.657,605.478L-452.657,605.478z"/>
<linearGradient id="SVGID_15_" gradientUnits="userSpaceOnUse" x1="-674.7681" y1="789.626" x2="-680.7681" y2="729.626" gradientTransform="matrix(1 0 0 -1 244 1330)">
	<stop  offset="0.0502" style="stop-color:#00FFFF"/>
	<stop  offset="0.8402" style="stop-color:#FF7BAC"/>
</linearGradient>
<path fill="url(#SVGID_15_)" d="M-441.9,568.361c1.376-0.364,2.688-0.923,4.037-1.373c2.841-0.948,3.685,1.272,5.384,2.538
	c2.124,1.581,6.773,0.637,6.438,4.474c-0.042,0.482,0.708,0.478,0.75,0c0.302-3.458-2.638-3.734-5.352-4.368
	c-1.952-0.457-2.966-2.89-4.923-3.659c-1.837-0.724-4.792,1.204-6.533,1.666C-442.567,567.762-442.368,568.485-441.9,568.361
	L-441.9,568.361z"/>
<linearGradient id="SVGID_16_" gradientUnits="userSpaceOnUse" x1="-649.0947" y1="787.0586" x2="-655.0945" y2="727.0614" gradientTransform="matrix(1 0 0 -1 244 1330)">
	<stop  offset="0.0502" style="stop-color:#00FFFF"/>
	<stop  offset="0.8402" style="stop-color:#FF7BAC"/>
</linearGradient>
<path fill="url(#SVGID_16_)" d="M-395.292,556.667c-0.008-5.167-1.138-8.173-6.103-10.365c-3.495-1.543-1.065-5.975-3.341-8.233
	c-1.018-1.01-2.81-0.938-4.057-0.577c-5.967,1.725-11.208,15.026-6.474,19.774c0.342,0.343,0.872-0.188,0.53-0.531
	c-4.617-4.63,1.144-17.075,6.665-18.671c3.361-0.972,3.567,2.944,3.745,5.168c0.098,1.229,1.066,2.513,1.929,3.325
	c1.272,1.198,3.173,1.68,4.536,2.93c2.058,1.887,1.815,4.634,1.819,7.181C-396.041,557.15-395.291,557.15-395.292,556.667
	L-395.292,556.667z"/>
<linearGradient id="SVGID_17_" gradientUnits="userSpaceOnUse" x1="-629.2271" y1="785.0732" x2="-635.2269" y2="725.0751" gradientTransform="matrix(1 0 0 -1 244 1330)">
	<stop  offset="0.0502" style="stop-color:#00FFFF"/>
	<stop  offset="0.8402" style="stop-color:#FF7BAC"/>
</linearGradient>
<path fill="url(#SVGID_17_)" d="M-378.567,550.695c3-0.995,5.434-2.427,6.262-5.596c0.544-2.084-1.065-3.452-2.799-3.962
	c-0.751-0.221-1.571-0.299-2.337-0.46c-6.018-1.269-1.335-5.153-0.147-6.188c0.939-0.82,1.588-1.537,1.951-2.723
	c0.487-1.593-0.297-3.222-1.976-3.392c-5.957-0.603-0.343-5.836-3.53-7.865c-2.585-1.646-7.821-4.671-10.994-2.927
	c-5.647,3.104-5.037,11.833-0.051,15.409c0.394,0.282,0.768-0.369,0.379-0.648c-3.222-2.31-3.993-6.521-3.274-10.195
	c1.317-6.724,15.792-4.091,13.312,3.019c-0.923,2.648,1.039,3.674,3.455,3.887c5.383,0.472,0.245,4.863-0.488,5.503
	c-0.398,0.347-1.006,0.878-1.285,1.337c-0.78,1.283-0.812,2.143-0.272,3.54c0.309,0.798,1.175,1.49,1.978,1.738
	c0.768,0.236,1.522,0.393,2.313,0.533c2.721,0.287,2.871,2.577,0.452,6.87c-0.977,0.62-2.025,1.086-3.146,1.397
	C-379.223,550.124-379.027,550.849-378.567,550.695L-378.567,550.695z"/>
<linearGradient id="SVGID_18_" gradientUnits="userSpaceOnUse" x1="-589.2642" y1="781.0791" x2="-595.2638" y2="721.0828" gradientTransform="matrix(1 0 0 -1 244 1330)">
	<stop  offset="0.0502" style="stop-color:#00FFFF"/>
	<stop  offset="0.8402" style="stop-color:#FF7BAC"/>
</linearGradient>
<path fill="url(#SVGID_18_)" d="M-352.009,536.478c-0.874-2.021-1.194-3.852-0.221-5.956c1.057-2.283,3.57-1.067,5.23-1.146
	c0.917-0.044,1.906-1.622,2.388-2.273c1.638-2.213,3.925-3.344,6.612-3.684c4.048-0.512,4.505,3.058,3.639,6.15
	c-0.13,0.467,0.593,0.664,0.724,0.199c0.536-1.913,1.186-5.024-0.917-6.336c-2.067-1.289-4.788-0.836-6.895,0.164
	c-1.244,0.591-2.412,1.213-3.239,2.347c-1.211,1.658-2.758,2.38-4.687,2.348c-0.879-0.015-1.328-0.092-2.146,0.387
	c-2.872,1.682-2.208,5.699-1.134,8.18C-352.465,537.299-351.819,536.917-352.009,536.478L-352.009,536.478z"/>
<linearGradient id="SVGID_19_" gradientUnits="userSpaceOnUse" x1="-537.5259" y1="775.9004" x2="-543.5263" y2="715.8962" gradientTransform="matrix(1 0 0 -1 244 1330)">
	<stop  offset="0.0502" style="stop-color:#00FFFF"/>
	<stop  offset="0.8402" style="stop-color:#FF7BAC"/>
</linearGradient>
<path fill="url(#SVGID_19_)" d="M-299.477,530.01c-4.06-2.936,4.812-5.215,6.474-6.005c0.776-0.369,1.272-1.036,1.601-1.806
	c0.217-0.51,0.272-1.101,0.366-1.643c0.647-3.755,8.408-1.689,6.38,2.588c-0.113,0.241,0.018,0.578,0.324,0.564
	c1.098,1.097,2.193,2.194,3.292,3.292c-0.011,0.484,0.739,0.483,0.75,0c0.042-1.824-0.342-3.052-2.047-3.875
	c-0.412-0.2-1.291,0.051-1.175-0.658c0.103-0.63,0.309-1.369-0.027-1.988c-1.302-2.395-6.309-4.088-7.922-1.171
	c-1,1.81-0.333,3.402-2.678,4.391c-1.799,0.759-3.655,1.32-5.394,2.224c-2.519,1.31-2.515,3.149-0.321,4.736
	C-299.463,530.941-299.089,530.291-299.477,530.01L-299.477,530.01z"/>
<linearGradient id="SVGID_20_" gradientUnits="userSpaceOnUse" x1="-582.1831" y1="780.3682" x2="-588.1831" y2="720.3682" gradientTransform="matrix(1 0 0 -1 244 1330)">
	<stop  offset="0.0502" style="stop-color:#00FFFF"/>
	<stop  offset="0.8402" style="stop-color:#FF7BAC"/>
</linearGradient>
<path fill="url(#SVGID_20_)" d="M-327.638,546.434c0.244-1.766,0.033-2.776-1.097-4.198c-3.646-4.592,1.207-5.816,3.254-8.69
	c3.831-5.376-1.236-8.408-3.796-13.189c-2.593-4.844-3.667-8.227-9.624-9.051c-4.6-0.636-7.811,0.851-8.141,5.695
	c-0.033,0.483,0.717,0.48,0.75,0c0.401-5.881,5.577-5.506,9.792-4.487c2.643,0.638,3.998,2.904,5.105,5.145
	c1.813,3.672,4.029,6.615,6.224,10.026c3.409,5.299-4.848,6.947-6.093,10.591c-1.082,3.168,3.368,4.579,2.901,7.959
	C-328.427,546.707-327.705,546.911-327.638,546.434L-327.638,546.434z"/>
<linearGradient id="SVGID_21_" gradientUnits="userSpaceOnUse" x1="-419.2988" y1="764.082" x2="-425.299" y2="704.0806" gradientTransform="matrix(1 0 0 -1 244 1330)">
	<stop  offset="0.0502" style="stop-color:#00FFFF"/>
	<stop  offset="0.8402" style="stop-color:#FF7BAC"/>
</linearGradient>
<path fill="url(#SVGID_21_)" d="M-190,644.042c3.1-0.298,6.111-0.237,9.154,0.504c5.617,1.367,8.727,7.488,3.926,11.825
	c-2.85,2.574-5.865,5.464-2.705,9.223c2.646,3.148,6.249,5.723,3.671,10.338c-1.962,3.514-6.507,5.76-10.175,6.875
	c-11.15,3.391-8.044-10.535-10.176-16.572c-0.16-0.452-0.885-0.258-0.725,0.199c1.653,4.683-0.945,16.881,6.793,17.473
	c6.286,0.48,15.772-4.399,15.979-11.446c0.102-3.437-3.615-5.596-5.306-8.099c-2.621-3.877,2.771-6.896,4.718-8.977
	c1.142-1.221,1.237-2.72,1.146-4.292c-0.458-7.754-10.623-8.347-16.302-7.801C-190.477,643.338-190.48,644.088-190,644.042
	L-190,644.042z"/>
<linearGradient id="SVGID_22_" gradientUnits="userSpaceOnUse" x1="-433.7476" y1="765.54" x2="-439.7484" y2="705.5317" gradientTransform="matrix(1 0 0 -1 244 1330)">
	<stop  offset="0.0502" style="stop-color:#00FFFF"/>
	<stop  offset="0.8402" style="stop-color:#FF7BAC"/>
</linearGradient>
<path fill="url(#SVGID_22_)" d="M-196.1,676.639c-4.745,1.082-8.733-1.188-8.858-6.305c-0.012-0.482-0.762-0.484-0.75,0
	c0.137,5.614,4.573,8.221,9.808,7.027C-195.429,677.254-195.629,676.531-196.1,676.639L-196.1,676.639z"/>
</svg>
